<svg width="40" height="40" viewBox="0 0 40 40" fill="none" xmlns="http://www.w3.org/2000/svg">
<g clip-path="url(#clip0_101_1114)">
<path d="M11.6848 26.6562H1.6747C0.760577 26.6562 0.0195312 27.3973 0.0195312 28.3114V38.3215C0.0195312 39.2356 0.760577 39.9767 1.6747 39.9767H11.6848C12.5989 39.9767 13.34 39.2356 13.34 38.3215V28.3114C13.34 27.3973 12.5989 26.6562 11.6848 26.6562Z" fill="#3B71FE"/>
<path d="M13.34 2.67172C13.34 1.74472 13.34 1.28124 13.1596 0.927177C13.0009 0.615736 12.7477 0.362528 12.4362 0.203841C12.0822 0.0234375 11.6187 0.0234375 10.6917 0.0234375H2.6678C1.74082 0.0234375 1.27733 0.0234375 0.923271 0.203841C0.611831 0.362528 0.358621 0.615736 0.199934 0.927177C0.0195313 1.28124 0.0195312 1.74472 0.0195312 2.67172V12.2425C0.0195312 12.6475 0.0195313 12.8499 0.0652817 13.0405C0.105844 13.2094 0.172747 13.3709 0.263532 13.519C0.365929 13.686 0.509114 13.8292 0.795485 14.1154L12.5653 25.8816C12.8512 26.1674 12.9942 26.3103 13.161 26.4127C13.3089 26.5033 13.4701 26.5702 13.6387 26.6107C13.8289 26.6565 14.0311 26.6567 14.4354 26.6571L18.0111 26.6601V13.3439L15.9859 13.3421C15.0597 13.3413 14.5966 13.3408 14.2428 13.1603C13.9317 13.0016 13.6787 12.7484 13.5202 12.4371C13.34 12.0832 13.34 11.62 13.34 10.6938V2.67172Z" fill="#141315"/>
<path d="M26.6601 37.3284C26.6601 38.2553 26.6601 38.7189 26.8405 39.0729C26.9992 39.3844 27.2524 39.6375 27.5638 39.7962C27.9179 39.9766 28.3814 39.9766 29.3084 39.9766H37.3323C38.2592 39.9766 38.7227 39.9766 39.0768 39.7962C39.3883 39.6375 39.6414 39.3844 39.8001 39.0729C39.9805 38.7189 39.9805 38.2553 39.9805 37.3284V21.0994C39.9805 20.6944 39.9805 20.492 39.9347 20.3015C39.8942 20.1325 39.8273 19.971 39.7365 19.8228C39.6341 19.6558 39.4909 19.5128 39.2045 19.2264L34.0958 14.1194C33.8096 13.8332 33.6665 13.6901 33.4996 13.5878C33.3514 13.4971 33.1901 13.4302 33.0212 13.3897C32.8307 13.344 32.6284 13.344 32.2236 13.344H18.0107V26.6602H24.0118C24.9387 26.6602 25.4023 26.6602 25.7564 26.8406C26.0677 26.9994 26.321 27.2526 26.4797 27.5641C26.6601 27.9182 26.6601 28.3816 26.6601 29.3085V37.3284Z" fill="#141315"/>
</g>
<defs>
<clipPath id="clip0_101_1114">
<rect width="40" height="40" fill="white"/>
</clipPath>
</defs>
</svg>
