<svg width="16" height="16" viewBox="0 0 16 16" fill="none" xmlns="http://www.w3.org/2000/svg">
<g clip-path="url(#clip0_89_6131)">
<path d="M7.39942 4.45226L8.00027 5.25568L8.60082 4.45203C8.84053 4.13125 9.15187 3.87061 9.51019 3.69087C9.86808 3.51133 10.263 3.41747 10.6635 3.41675C11.004 3.41779 11.3408 3.48571 11.655 3.61662C11.9695 3.74771 12.2551 3.93939 12.4954 4.18066L13.0224 3.65581L12.4954 4.18066C12.7357 4.42193 12.9259 4.70806 13.0554 5.02269C13.1849 5.33732 13.251 5.6743 13.25 6.01441L13.25 6.01785C13.251 6.61227 13.1581 7.20313 12.9746 7.76863L12.9746 7.76862L12.9729 7.77385C12.5527 9.1019 11.6859 10.188 10.7283 11.01C9.77573 11.8276 8.77598 12.347 8.14714 12.5638C8.05083 12.59 7.94923 12.59 7.85292 12.5638C7.22407 12.347 6.22434 11.8276 5.2718 11.01C4.3142 10.188 3.44732 9.1019 3.02714 7.77385L3.02716 7.77384L3.02546 7.76863C2.84199 7.20313 2.74905 6.61227 2.75007 6.01785H2.7501L2.75006 6.01149C2.74639 5.46893 2.91433 4.93898 3.23007 4.4972C3.54583 4.05541 3.9933 3.72432 4.5088 3.55133C5.02431 3.37834 5.58138 3.37233 6.10051 3.53417C6.61964 3.696 7.07418 4.01737 7.39942 4.45226Z" stroke="#141315" stroke-width="1.5"/>
</g>
<defs>
<clipPath id="clip0_89_6131">
<rect width="16" height="16" fill="white"/>
</clipPath>
</defs>
</svg>
