<svg width="20" height="20" viewBox="0 0 20 20" fill="none" xmlns="http://www.w3.org/2000/svg">
<g clip-path="url(#clip0_89_6222)">
<path d="M4.3374 7.41658V10.8082C4.33377 11.0925 4.37024 11.3758 4.44573 11.6499C4.59402 12.2489 4.94826 12.7766 5.44644 13.1408C5.94462 13.5049 6.55501 13.6822 7.17073 13.6416H9.4374L11.9541 15.3166C12.0384 15.3743 12.137 15.4079 12.2391 15.4135C12.3412 15.4191 12.4429 15.3967 12.5331 15.3486C12.6233 15.3004 12.6986 15.2285 12.7508 15.1406C12.8029 15.0527 12.83 14.9521 12.8291 14.8499V13.6416C13.2051 13.655 13.5801 13.5934 13.932 13.4603C14.284 13.3273 14.6059 13.1254 14.8791 12.8666C15.1404 12.5931 15.3444 12.2702 15.4789 11.9166C15.6134 11.5631 15.6758 11.1863 15.6624 10.8082V7.41658C15.6846 7.06718 15.6374 6.71683 15.5236 6.38575C15.4097 6.05467 15.2314 5.74941 14.999 5.48756C14.7666 5.22572 14.4847 5.01247 14.1695 4.86012C13.8542 4.70778 13.512 4.61934 13.1624 4.59992C13.0541 4.59158 12.9457 4.58325 12.8291 4.58325H7.17073C6.7927 4.56039 6.41411 4.61802 6.06 4.75232C5.70588 4.88662 5.3843 5.09455 5.1165 5.36235C4.8487 5.63015 4.64077 5.95173 4.50647 6.30585C4.37217 6.65996 4.31454 7.03854 4.3374 7.41658Z" fill="#A7A7AB"/>
</g>
<defs>
<clipPath id="clip0_89_6222">
<rect width="20" height="20" fill="white"/>
</clipPath>
</defs>
</svg>
