<svg width="20" height="20" viewBox="0 0 20 20" fill="none" xmlns="http://www.w3.org/2000/svg">
<g clip-path="url(#clip0_101_1194)">
<path d="M4.33789 7.41658V10.8082C4.33426 11.0925 4.37073 11.3758 4.44622 11.6499C4.59451 12.2489 4.94875 12.7766 5.44693 13.1408C5.94511 13.5049 6.55549 13.6822 7.17122 13.6416H9.43789L11.9546 15.3166C12.0389 15.3743 12.1375 15.4079 12.2396 15.4135C12.3417 15.4191 12.4433 15.3967 12.5335 15.3486C12.6238 15.3004 12.6991 15.2285 12.7512 15.1406C12.8034 15.0527 12.8305 14.9521 12.8296 14.8499V13.6416C13.2056 13.655 13.5805 13.5934 13.9325 13.4603C14.2845 13.3273 14.6064 13.1254 14.8796 12.8666C15.1409 12.5931 15.3449 12.2702 15.4794 11.9166C15.6139 11.5631 15.6763 11.1863 15.6629 10.8082V7.41658C15.6851 7.06718 15.6379 6.71683 15.5241 6.38575C15.4102 6.05467 15.2319 5.74941 14.9995 5.48756C14.7671 5.22572 14.4852 5.01247 14.1699 4.86012C13.8547 4.70778 13.5125 4.61934 13.1629 4.59992C13.0546 4.59158 12.9462 4.58325 12.8296 4.58325H7.17122C6.79318 4.56039 6.4146 4.61802 6.06048 4.75232C5.70637 4.88662 5.38479 5.09455 5.11699 5.36235C4.84918 5.63015 4.64126 5.95173 4.50696 6.30585C4.37266 6.65996 4.31503 7.03855 4.33789 7.41658Z" fill="#A7A7AB"/>
</g>
<defs>
<clipPath id="clip0_101_1194">
<rect width="20" height="20" fill="white"/>
</clipPath>
</defs>
</svg>
