<svg width="20" height="20" viewBox="0 0 20 20" fill="none" xmlns="http://www.w3.org/2000/svg">
<g clip-path="url(#clip0_101_1144)">
<path d="M5.15071 7.34109C5.23691 7.25227 5.35263 7.19806 5.47605 7.18866C5.59946 7.17927 5.72205 7.21534 5.82071 7.29009L5.87771 7.34109L9.99971 11.5451L14.1217 7.34509C14.2079 7.25627 14.3236 7.20205 14.447 7.19266C14.5705 7.18327 14.6931 7.21934 14.7917 7.29409L14.8497 7.34509C14.9369 7.43493 14.9898 7.55261 14.9989 7.6775C15.0081 7.80239 14.9729 7.92651 14.8997 8.02809L14.8497 8.08709L10.3637 12.6581C10.2779 12.7474 10.1624 12.8021 10.0389 12.8121C9.91552 12.822 9.79272 12.7865 9.69371 12.7121L9.63571 12.6611L5.15071 8.08309C5.05407 7.98377 5 7.85067 5 7.71209C5 7.57352 5.05407 7.44041 5.15071 7.34109Z" fill="#A7A7AB"/>
</g>
<defs>
<clipPath id="clip0_101_1144">
<rect width="20" height="20" fill="white"/>
</clipPath>
</defs>
</svg>
